<svg xmlns="http://www.w3.org/2000/svg" viewBox="0 0 16 17"><defs><style>.cls-1{fill:none;stroke:#fff;stroke-miterlimit:10;}</style></defs><title>자산 5</title><g id="레이어_2" data-name="레이어 2"><g id="레이어_1-2" data-name="레이어 1"><path class="cls-1" d="M13.74,9.28a6.53,6.53,0,0,0,0-.78,4.93,4.93,0,0,0-.06-.78L15.36,6.4a.42.42,0,0,0,.09-.51L13.91,3.12a.39.39,0,0,0-.47-.18l-1.92.8A5.75,5.75,0,0,0,10.22,3L9.93.84A.39.39,0,0,0,9.54.5H6.46a.38.38,0,0,0-.38.34L5.79,3a5.9,5.9,0,0,0-1.3.78l-1.92-.8a.37.37,0,0,0-.47.18L.56,5.89a.4.4,0,0,0,.09.51L2.28,7.72a4.71,4.71,0,0,0,0,1.56L.64,10.6a.42.42,0,0,0-.09.51l1.54,2.77a.39.39,0,0,0,.47.18l1.92-.8a5.75,5.75,0,0,0,1.3.78l.29,2.12a.4.4,0,0,0,.39.34H9.54a.37.37,0,0,0,.38-.34L10.21,14a5.9,5.9,0,0,0,1.3-.78l1.92.8a.37.37,0,0,0,.47-.18l1.54-2.77a.4.4,0,0,0-.09-.51ZM8,11.5a3,3,0,0,1-2.89-3A3,3,0,0,1,8,5.5a3,3,0,0,1,2.89,3A3,3,0,0,1,8,11.5Z"/></g></g></svg>